<svg width="197" height="48" viewBox="0 0 197 48" fill="none" xmlns="http://www.w3.org/2000/svg">
    <g filter="url(#full-logo0_d)" class="logo-text">
        <path d="M57.156 21.664H51.108V18.1H67.578V21.664H61.53V37H57.156V21.664ZM73.341 24.391C73.845 23.689 74.52 23.158 75.366 22.798C76.23 22.438 77.22 22.258 78.336 22.258V26.146C77.868 26.11 77.553 26.092 77.391 26.092C76.185 26.092 75.24 26.434 74.556 27.118C73.872 27.784 73.53 28.792 73.53 30.142V37H69.318V22.474H73.341V24.391ZM86.6204 22.258C88.8704 22.258 90.5984 22.798 91.8044 23.878C93.0104 24.94 93.6134 26.551 93.6134 28.711V37H89.6714V35.191C88.8794 36.541 87.4034 37.216 85.2434 37.216C84.1274 37.216 83.1554 37.027 82.3274 36.649C81.5174 36.271 80.8964 35.749 80.4644 35.083C80.0324 34.417 79.8164 33.661 79.8164 32.815C79.8164 31.465 80.3204 30.403 81.3284 29.629C82.3544 28.855 83.9294 28.468 86.0534 28.468H89.4014C89.4014 27.55 89.1224 26.848 88.5644 26.362C88.0064 25.858 87.1694 25.606 86.0534 25.606C85.2794 25.606 84.5144 25.732 83.7584 25.984C83.0204 26.218 82.3904 26.542 81.8684 26.956L80.3564 24.013C81.1484 23.455 82.0934 23.023 83.1914 22.717C84.3074 22.411 85.4504 22.258 86.6204 22.258ZM86.2964 34.381C87.0164 34.381 87.6554 34.219 88.2134 33.895C88.7714 33.553 89.1674 33.058 89.4014 32.41V30.925H86.5124C84.7844 30.925 83.9204 31.492 83.9204 32.626C83.9204 33.166 84.1274 33.598 84.5414 33.922C84.9734 34.228 85.5584 34.381 86.2964 34.381ZM104.604 37.216C103.056 37.216 101.661 36.901 100.419 36.271C99.1946 35.623 98.2316 34.732 97.5296 33.598C96.8456 32.464 96.5036 31.177 96.5036 29.737C96.5036 28.297 96.8456 27.01 97.5296 25.876C98.2316 24.742 99.1946 23.86 100.419 23.23C101.661 22.582 103.056 22.258 104.604 22.258C106.134 22.258 107.466 22.582 108.6 23.23C109.752 23.86 110.589 24.769 111.111 25.957L107.844 27.712C107.088 26.38 105.999 25.714 104.577 25.714C103.479 25.714 102.57 26.074 101.85 26.794C101.13 27.514 100.77 28.495 100.77 29.737C100.77 30.979 101.13 31.96 101.85 32.68C102.57 33.4 103.479 33.76 104.577 33.76C106.017 33.76 107.106 33.094 107.844 31.762L111.111 33.544C110.589 34.696 109.752 35.596 108.6 36.244C107.466 36.892 106.134 37.216 104.604 37.216ZM127.58 29.791C127.58 29.845 127.553 30.223 127.499 30.925H116.51C116.708 31.825 117.176 32.536 117.914 33.058C118.652 33.58 119.57 33.841 120.668 33.841C121.424 33.841 122.09 33.733 122.666 33.517C123.26 33.283 123.809 32.923 124.313 32.437L126.554 34.867C125.186 36.433 123.188 37.216 120.56 37.216C118.922 37.216 117.473 36.901 116.213 36.271C114.953 35.623 113.981 34.732 113.297 33.598C112.613 32.464 112.271 31.177 112.271 29.737C112.271 28.315 112.604 27.037 113.27 25.903C113.954 24.751 114.881 23.86 116.051 23.23C117.239 22.582 118.562 22.258 120.02 22.258C121.442 22.258 122.729 22.564 123.881 23.176C125.033 23.788 125.933 24.67 126.581 25.822C127.247 26.956 127.58 28.279 127.58 29.791ZM120.047 25.444C119.093 25.444 118.292 25.714 117.644 26.254C116.996 26.794 116.6 27.532 116.456 28.468H123.611C123.467 27.55 123.071 26.821 122.423 26.281C121.775 25.723 120.983 25.444 120.047 25.444ZM148.987 22.258C150.805 22.258 152.245 22.798 153.307 23.878C154.387 24.94 154.927 26.542 154.927 28.684V37H150.715V29.332C150.715 28.18 150.472 27.325 149.986 26.767C149.518 26.191 148.843 25.903 147.961 25.903C146.971 25.903 146.188 26.227 145.612 26.875C145.036 27.505 144.748 28.45 144.748 29.71V37H140.536V29.332C140.536 27.046 139.618 25.903 137.782 25.903C136.81 25.903 136.036 26.227 135.46 26.875C134.884 27.505 134.596 28.45 134.596 29.71V37H130.384V22.474H134.407V24.148C134.947 23.536 135.604 23.068 136.378 22.744C137.17 22.42 138.034 22.258 138.97 22.258C139.996 22.258 140.923 22.465 141.751 22.879C142.579 23.275 143.245 23.86 143.749 24.634C144.343 23.878 145.09 23.293 145.99 22.879C146.908 22.465 147.907 22.258 148.987 22.258ZM164.562 22.258C166.812 22.258 168.54 22.798 169.746 23.878C170.952 24.94 171.555 26.551 171.555 28.711V37H167.613V35.191C166.821 36.541 165.345 37.216 163.185 37.216C162.069 37.216 161.097 37.027 160.269 36.649C159.459 36.271 158.838 35.749 158.406 35.083C157.974 34.417 157.758 33.661 157.758 32.815C157.758 31.465 158.262 30.403 159.27 29.629C160.296 28.855 161.871 28.468 163.995 28.468H167.343C167.343 27.55 167.064 26.848 166.506 26.362C165.948 25.858 165.111 25.606 163.995 25.606C163.221 25.606 162.456 25.732 161.7 25.984C160.962 26.218 160.332 26.542 159.81 26.956L158.298 24.013C159.09 23.455 160.035 23.023 161.133 22.717C162.249 22.411 163.392 22.258 164.562 22.258ZM164.238 34.381C164.958 34.381 165.597 34.219 166.155 33.895C166.713 33.553 167.109 33.058 167.343 32.41V30.925H164.454C162.726 30.925 161.862 31.492 161.862 32.626C161.862 33.166 162.069 33.598 162.483 33.922C162.915 34.228 163.5 34.381 164.238 34.381ZM184.196 22.258C185.996 22.258 187.445 22.798 188.543 23.878C189.659 24.958 190.217 26.56 190.217 28.684V37H186.005V29.332C186.005 28.18 185.753 27.325 185.249 26.767C184.745 26.191 184.016 25.903 183.062 25.903C182 25.903 181.154 26.236 180.524 26.902C179.894 27.55 179.579 28.522 179.579 29.818V37H175.367V22.474H179.39V24.175C179.948 23.563 180.641 23.095 181.469 22.771C182.297 22.429 183.206 22.258 184.196 22.258Z"
              fill="white"/>
    </g>
    <g clip-path="url(#clip0)" >
        <path d="M28.16 27.84H20.16V35.84H28.16V27.84Z" fill="#FCD088"/>
        <path d="M28.0005 27.3955H24.0275V35.3955H28.0005V27.3955Z" fill="#FCD088"/>
        <path d="M24 33.3591L20.1053 31.6728C19.8789 31.5741 19.6142 31.6482 19.4722 31.8503L18.699 32.9489L14.4596 33.7968C12.3012 34.2286 10.7475 36.1238 10.7475 38.3249V44.0106C14.5451 46.5308 19.1008 48 24 48C24.0091 48 24.0179 47.9997 24.027 47.9995V33.3474L24 33.3591Z"
              fill="#D9EDEC"/>
        <path d="M33.5404 33.7969L29.301 32.949L28.5517 31.8553C28.4115 31.6506 28.1461 31.5734 27.9181 31.6711L24.0272 33.3474V47.9995C28.1578 47.995 32.044 46.9472 35.4363 45.1052C36.0591 44.7196 36.665 44.3252 37.2527 43.932V38.325C37.2525 36.1237 35.6988 34.2285 33.5404 33.7969Z"
              fill="#BACECC"/>
        <path d="M32.581 19.26C32.6241 18.8621 32.6465 18.4699 32.6465 18.0873C32.6465 13.0272 28.7753 8.92529 24 8.92529C19.2248 8.92529 15.3535 13.0271 15.3535 18.0873C15.3535 18.4698 15.376 18.862 15.419 19.26C14.5804 19.4781 14.1813 20.7682 14.5278 22.1491C14.8754 23.5344 15.8416 24.4854 16.6857 24.2736C16.7627 24.2544 16.8344 24.2231 16.9038 24.1867C18.4663 27.3228 21.0617 29.8674 24 29.8674C26.9383 29.8674 29.5338 27.3231 31.0962 24.1867C31.1656 24.2232 31.2373 24.2544 31.3143 24.2736C32.1584 24.4854 33.1245 23.5344 33.4722 22.1491C33.8186 20.7682 33.4196 19.4778 32.581 19.26Z"
              fill="#FFEDB5"/>
        <path d="M32.581 19.26C32.6241 18.8622 32.6465 18.4699 32.6465 18.0873C32.6465 13.0368 28.7898 8.94162 24.027 8.92596V29.8664C26.9542 29.8508 29.5386 27.3131 31.0962 24.1866C31.1656 24.2232 31.2373 24.2542 31.3143 24.2735C32.1584 24.4854 33.1245 23.5343 33.4722 22.149C33.8186 20.7682 33.4196 19.4778 32.581 19.26Z"
              fill="#FFEDB5"/>
        <path d="M28.1888 37.621L24 33.4455L19.8113 37.621L18.699 32.9489L17.3333 33.1734L18.4271 47.3484C20.2158 47.7736 22.0813 48 24 48C26.3918 48 28.7013 47.6485 30.8812 46.997L30.6659 33.1733L29.3011 32.9487L28.1888 37.621Z"
              fill="#B7CECC"/>
        <path d="M30.6658 33.1733L29.301 32.9488L28.1888 37.6209L24.027 33.4724V47.9994C26.4091 47.9967 28.7093 47.6458 30.8812 46.9969L30.6658 33.1733Z"
              fill="#B7CECC"/>
        <path d="M15.1919 17.8048C15.1919 17.8048 15.3535 19.5826 15.7576 20.6601L16.5118 20.6331C16.5118 20.6331 16.3232 19.1785 17.9125 17.697C19.5019 16.2155 15.1919 17.8048 15.1919 17.8048Z"
              fill="#494948"/>
        <path d="M32.8081 17.8048C32.8081 17.8048 32.6465 19.5826 32.2424 20.6601L31.4882 20.6331C31.4882 20.6331 31.6768 19.1785 30.0875 17.697C28.4982 16.2155 32.8081 17.8048 32.8081 17.8048Z"
              fill="#333333"/>
        <path d="M33.5985 33.7601L30.6658 33.1732L27.7811 47.7024C31.273 47.1497 34.5141 45.8443 37.3331 43.9571V38.3159C37.3333 36.1013 35.7702 34.1946 33.5985 33.7601Z"
              fill="#351906"/>
        <path d="M14.4015 33.7601L17.3334 33.1732L20.2187 47.7024C16.7268 47.1497 13.4858 45.8443 10.6667 43.9571V38.3159C10.6667 36.1013 12.2298 34.1946 14.4015 33.7601Z"
              fill="#49240B"/>
        <path d="M27.2105 32.479L24.9548 33.3053C24.9174 33.1886 24.8093 33.1037 24.6802 33.1037H23.4007C23.2722 33.1037 23.1644 33.188 23.1265 33.3039L20.8749 32.479C20.4849 32.3361 20.0719 32.6248 20.0719 33.0401V35.8897C20.0719 36.305 20.4849 36.5937 20.8749 36.4508L23.1265 35.6259C23.1643 35.7418 23.272 35.8262 23.4007 35.8262H24.6802C24.8093 35.8262 24.9173 35.7411 24.9548 35.6245L27.2105 36.4508C27.6005 36.5937 28.0135 36.3051 28.0135 35.8897V33.0401C28.0135 32.6248 27.6005 32.3361 27.2105 32.479Z"
              fill="#683615"/>
        <path d="M27.2105 32.479L24.9547 33.3053C24.9174 33.1886 24.8092 33.1035 24.6802 33.1035H24.0269V35.8261H24.6802C24.8092 35.8261 24.9172 35.7411 24.9547 35.6244L27.2105 36.4507C27.6005 36.5936 28.0135 36.305 28.0135 35.8896V33.04C28.0135 32.6248 27.6005 32.3361 27.2105 32.479Z"
              fill="#683615"/>
        <path d="M25.7894 25.3736C24.591 24.5965 24.2239 24.9382 24.0002 25.3207C23.7765 24.9382 23.4093 24.5965 22.211 25.3736C20.9855 26.1682 19.3693 25.2523 19.3693 25.2523C19.3693 25.2523 20.2324 26.9296 22.3458 26.7203C23.251 26.6306 23.807 26.2601 24.0004 25.8837C24.1939 26.2601 24.7496 26.6307 25.655 26.7203C27.7684 26.9295 28.6314 25.2523 28.6314 25.2523C28.6314 25.2523 27.0149 26.1681 25.7894 25.3736Z"
              fill="#494948"/>
        <path d="M25.7894 25.3735C24.6371 24.6264 24.2537 24.9137 24.0272 25.2769V25.9261C24.2395 26.2875 24.7836 26.6341 25.6548 26.7205C27.7683 26.9297 28.6312 25.2525 28.6312 25.2525C28.6312 25.2525 27.0149 26.1681 25.7894 25.3735Z"
              fill="#494948"/>
        <path d="M32.8889 17.4816H15.1111V6.49163C15.1111 5.86679 15.6176 5.36035 16.2424 5.36035H31.7575C32.3824 5.36035 32.8888 5.86688 32.8888 6.49163L32.8889 17.4816Z"
              fill="#49240B"/>
        <path d="M32.8889 6.49163C32.8889 5.86679 32.3824 5.36035 31.7576 5.36035H24.027V17.4816H32.8889V6.49163Z"
              fill="#49240B"/>
        <path d="M32.8889 12.5786H15.1111V17.4809H32.8889V12.5786Z" fill="#683615"/>
        <path d="M32.8894 12.5786H24.0275V17.4809H32.8894V12.5786Z" fill="#683615"/>
        <path d="M35.3617 18.1659H12.6385C12.3082 18.1659 12.0404 17.8981 12.0404 17.5678V16.8835C12.0404 16.5532 12.3082 16.2854 12.6385 16.2854H35.3616C35.6919 16.2854 35.9597 16.5532 35.9597 16.8835V17.5678C35.9598 17.8982 35.6919 18.1659 35.3617 18.1659Z"
              fill="#49240B"/>
        <path d="M35.3617 16.2852H24.0272V18.1659H35.3617C35.692 18.1659 35.9598 17.8981 35.9598 17.5678V16.8833C35.9598 16.5531 35.6919 16.2852 35.3617 16.2852Z"
              fill="#49240C"/>
    </g>
    <defs>
        <filter id="full-logo0_d" x="47.108" y="15.1" width="147.109" height="27.116" filterUnits="userSpaceOnUse"
                color-interpolation-filters="sRGB">
            <feFlood flood-opacity="0" result="BackgroundImageFix"/>
            <feColorMatrix in="SourceAlpha" type="matrix" values="0 0 0 0 0 0 0 0 0 0 0 0 0 0 0 0 0 0 127 0"/>
            <feOffset dy="1"/>
            <feGaussianBlur stdDeviation="2"/>
            <feColorMatrix type="matrix" values="0 0 0 0 0.115208 0 0 0 0 0.136933 0 0 0 0 0.658333 0 0 0 0.41 0"/>
            <feBlend mode="normal" in2="BackgroundImageFix" result="effect1_dropShadow"/>
            <feBlend mode="normal" in="SourceGraphic" in2="effect1_dropShadow" result="shape"/>
        </filter>
        <clipPath id="clip0">
            <rect width="48" height="48" fill="white"/>
        </clipPath>
    </defs>
</svg>
