<svg width="48" height="48" viewBox="0 0 48 48" fill="none" xmlns="http://www.w3.org/2000/svg">
    <g clip-path="url(#logo0)">
        <path d="M28.16 27.84H20.16V35.84H28.16V27.84Z" fill="#FCD088"/>
        <path d="M28.0005 27.3955H24.0275V35.3955H28.0005V27.3955Z" fill="#FCD088"/>
        <path d="M24 33.3591L20.1053 31.6728C19.8789 31.5741 19.6142 31.6482 19.4722 31.8503L18.699 32.9489L14.4596 33.7968C12.3012 34.2286 10.7475 36.1238 10.7475 38.3249V44.0106C14.5451 46.5308 19.1008 48 24 48C24.0091 48 24.0179 47.9997 24.027 47.9995V33.3474L24 33.3591Z"
              fill="#D9EDEC"/>
        <path d="M33.5404 33.7969L29.301 32.949L28.5517 31.8553C28.4115 31.6506 28.1461 31.5734 27.9181 31.6711L24.0272 33.3474V47.9995C28.1578 47.995 32.044 46.9472 35.4363 45.1052C36.0591 44.7196 36.665 44.3252 37.2527 43.932V38.325C37.2525 36.1237 35.6988 34.2285 33.5404 33.7969Z"
              fill="#BACECC"/>
        <path d="M32.581 19.26C32.6241 18.8621 32.6465 18.4699 32.6465 18.0873C32.6465 13.0272 28.7753 8.92529 24 8.92529C19.2248 8.92529 15.3535 13.0271 15.3535 18.0873C15.3535 18.4698 15.376 18.862 15.419 19.26C14.5804 19.4781 14.1813 20.7682 14.5278 22.1491C14.8754 23.5344 15.8416 24.4854 16.6857 24.2736C16.7627 24.2544 16.8344 24.2231 16.9038 24.1867C18.4663 27.3228 21.0617 29.8674 24 29.8674C26.9383 29.8674 29.5338 27.3231 31.0962 24.1867C31.1656 24.2232 31.2373 24.2544 31.3143 24.2736C32.1584 24.4854 33.1245 23.5344 33.4722 22.1491C33.8186 20.7682 33.4196 19.4778 32.581 19.26Z"
              fill="#FFEDB5"/>
        <path d="M32.581 19.26C32.6241 18.8622 32.6465 18.4699 32.6465 18.0873C32.6465 13.0368 28.7898 8.94162 24.027 8.92596V29.8664C26.9542 29.8508 29.5386 27.3131 31.0962 24.1866C31.1656 24.2232 31.2373 24.2542 31.3143 24.2735C32.1584 24.4854 33.1245 23.5343 33.4722 22.149C33.8186 20.7682 33.4196 19.4778 32.581 19.26Z"
              fill="#FFEDB5"/>
        <path d="M28.1888 37.621L24 33.4455L19.8113 37.621L18.699 32.9489L17.3333 33.1734L18.4271 47.3484C20.2158 47.7736 22.0813 48 24 48C26.3918 48 28.7013 47.6485 30.8812 46.997L30.6659 33.1733L29.3011 32.9487L28.1888 37.621Z"
              fill="#B7CECC"/>
        <path d="M30.6658 33.1733L29.301 32.9488L28.1888 37.6209L24.027 33.4724V47.9994C26.4091 47.9967 28.7093 47.6458 30.8812 46.9969L30.6658 33.1733Z"
              fill="#B7CECC"/>
        <path d="M15.1919 17.8048C15.1919 17.8048 15.3535 19.5826 15.7576 20.6601L16.5118 20.6331C16.5118 20.6331 16.3232 19.1785 17.9125 17.697C19.5019 16.2155 15.1919 17.8048 15.1919 17.8048Z"
              fill="#494948"/>
        <path d="M32.8081 17.8048C32.8081 17.8048 32.6465 19.5826 32.2424 20.6601L31.4882 20.6331C31.4882 20.6331 31.6768 19.1785 30.0875 17.697C28.4982 16.2155 32.8081 17.8048 32.8081 17.8048Z"
              fill="#333333"/>
        <path d="M33.5985 33.7601L30.6658 33.1732L27.7811 47.7024C31.273 47.1497 34.5141 45.8443 37.3331 43.9571V38.3159C37.3333 36.1013 35.7702 34.1946 33.5985 33.7601Z"
              fill="#351906"/>
        <path d="M14.4015 33.7601L17.3334 33.1732L20.2187 47.7024C16.7268 47.1497 13.4858 45.8443 10.6667 43.9571V38.3159C10.6667 36.1013 12.2298 34.1946 14.4015 33.7601Z"
              fill="#49240B"/>
        <path d="M27.2105 32.479L24.9548 33.3053C24.9174 33.1886 24.8093 33.1037 24.6802 33.1037H23.4007C23.2722 33.1037 23.1644 33.188 23.1265 33.3039L20.8749 32.479C20.4849 32.3361 20.0719 32.6248 20.0719 33.0401V35.8897C20.0719 36.305 20.4849 36.5937 20.8749 36.4508L23.1265 35.6259C23.1643 35.7418 23.272 35.8262 23.4007 35.8262H24.6802C24.8093 35.8262 24.9173 35.7411 24.9548 35.6245L27.2105 36.4508C27.6005 36.5937 28.0135 36.3051 28.0135 35.8897V33.0401C28.0135 32.6248 27.6005 32.3361 27.2105 32.479Z"
              fill="#683615"/>
        <path d="M27.2105 32.479L24.9547 33.3053C24.9174 33.1886 24.8092 33.1035 24.6802 33.1035H24.0269V35.8261H24.6802C24.8092 35.8261 24.9172 35.7411 24.9547 35.6244L27.2105 36.4507C27.6005 36.5936 28.0135 36.305 28.0135 35.8896V33.04C28.0135 32.6248 27.6005 32.3361 27.2105 32.479Z"
              fill="#683615"/>
        <path d="M25.7894 25.3736C24.591 24.5965 24.2239 24.9382 24.0002 25.3207C23.7765 24.9382 23.4093 24.5965 22.211 25.3736C20.9855 26.1682 19.3693 25.2523 19.3693 25.2523C19.3693 25.2523 20.2324 26.9296 22.3458 26.7203C23.251 26.6306 23.807 26.2601 24.0004 25.8837C24.1939 26.2601 24.7496 26.6307 25.655 26.7203C27.7684 26.9295 28.6314 25.2523 28.6314 25.2523C28.6314 25.2523 27.0149 26.1681 25.7894 25.3736Z"
              fill="#494948"/>
        <path d="M25.7894 25.3735C24.6371 24.6264 24.2537 24.9137 24.0272 25.2769V25.9261C24.2395 26.2875 24.7836 26.6341 25.6548 26.7205C27.7683 26.9297 28.6312 25.2525 28.6312 25.2525C28.6312 25.2525 27.0149 26.1681 25.7894 25.3735Z"
              fill="#494948"/>
        <path d="M32.8889 17.4816H15.1111V6.49163C15.1111 5.86679 15.6176 5.36035 16.2424 5.36035H31.7575C32.3824 5.36035 32.8888 5.86688 32.8888 6.49163L32.8889 17.4816Z"
              fill="#49240B"/>
        <path d="M32.8889 6.49163C32.8889 5.86679 32.3824 5.36035 31.7576 5.36035H24.027V17.4816H32.8889V6.49163Z"
              fill="#49240B"/>
        <path d="M32.8889 12.5786H15.1111V17.4809H32.8889V12.5786Z" fill="#683615"/>
        <path d="M32.8894 12.5786H24.0275V17.4809H32.8894V12.5786Z" fill="#683615"/>
        <path d="M35.3617 18.1659H12.6385C12.3082 18.1659 12.0404 17.8981 12.0404 17.5678V16.8835C12.0404 16.5532 12.3082 16.2854 12.6385 16.2854H35.3616C35.6919 16.2854 35.9597 16.5532 35.9597 16.8835V17.5678C35.9598 17.8982 35.6919 18.1659 35.3617 18.1659Z"
              fill="#49240B"/>
        <path d="M35.3617 16.2852H24.0272V18.1659H35.3617C35.692 18.1659 35.9598 17.8981 35.9598 17.5678V16.8833C35.9598 16.5531 35.6919 16.2852 35.3617 16.2852Z"
              fill="#49240C"/>
    </g>
    <defs>
        <clipPath id="logo0">
            <rect width="48" height="48" fill="white"/>
        </clipPath>
    </defs>
</svg>
