<svg width="44" height="30" viewBox="0 0 44 30" fill="none" xmlns="http://www.w3.org/2000/svg">
<path d="M7.40723 3.39355H4.91699V26.7578H7.40723V29.9072H0.859375V0.244141H7.40723V3.39355ZM22.1729 17.0312H19.0527V25H14.9365V3.67188H22.085C23.2666 3.67188 24.3359 3.81348 25.293 4.09668C26.25 4.37012 27.0654 4.77539 27.7393 5.3125C28.4229 5.84961 28.9453 6.51855 29.3066 7.31934C29.6777 8.12012 29.8633 9.04785 29.8633 10.1025C29.8633 10.8643 29.7705 11.5527 29.585 12.168C29.4092 12.7734 29.1504 13.3203 28.8086 13.8086C28.4766 14.2871 28.0713 14.707 27.5928 15.0684C27.124 15.4297 26.5967 15.7422 26.0107 16.0059L30.5957 24.8096V25H26.1865L22.1729 17.0312ZM19.0527 13.6914H22.0996C23.2617 13.6914 24.1553 13.3984 24.7803 12.8125C25.415 12.2168 25.7324 11.4062 25.7324 10.3809C25.7324 9.31641 25.4248 8.49121 24.8096 7.90527C24.1943 7.30957 23.2861 7.01172 22.085 7.01172H19.0527V13.6914ZM36.8945 0.244141H43.457V29.9072H36.8945V26.7578H39.3994V3.39355H36.8945V0.244141Z" fill="white"/>
</svg>
